<svg id="Layer_1" data-name="Layer 1" xmlns="http://www.w3.org/2000/svg" viewBox="0 0 1920 792"><defs><style>.cls-1{fill:#fff;}.cls-2{fill:#231f20;}</style></defs><title>Artboard 1 copy</title><rect class="cls-1" width="1920" height="792"/><path class="cls-2" d="M420.4,355.77c-3.53-7.38-4.69-10.22-5.06-11.23V344L337.75,151.81h-13.9L245.58,349.28c-4.29,10.74-6.76,12.6-6.86,12.67a10.35,10.35,0,0,1-6.22,1.68H225v17.08h46.28V363.63h-6.1c.41-1.22,1-2.87,1.84-5.07l30-74.88h51.78l28.27,70.17,0,.06V354l.24.88a13.67,13.67,0,0,0,1.25,2.78l.36.9h.11a47.26,47.26,0,0,1,1.77,5.1h-6.31v17.08h64.17V363.63h-7.47C427.76,363.63,423.7,362.69,420.4,355.77Zm-115.34-92.9,17.52-44.13,17.5,44.13Z"/><path class="cls-2" d="M677.82,351.94c-8,4.72-14.85,7.11-20.52,7.11-5.84,0-12.08-1.83-18.55-5.43-4.56-2.54-13.47-10.36-30-33.24-13.75-19-22.29-31.46-25.39-36.92l-11-16.87a83.23,83.23,0,0,0,23.07-22.75c7.24-10.9,10.91-22.58,10.91-34.72,0-10.61-2.16-19.81-6.4-27.37a46.29,46.29,0,0,0-19.11-18.25,64,64,0,0,0-23.59-7.5c-7.1-.7-18.11-1-33.65-1H456.34v17l7.37.09c4.28.06,5.87.81,6.28,1.06a30.18,30.18,0,0,1,1.52,10.5V351.07c0,7.65-.85,10.56-1.18,11.39-.58.29-2.42,1-6.84,1.17l-7.15.31v16.77h69.32V363.63h-7.47c-4,0-5.63-.64-6.08-.87-.44-.89-1.34-3.49-1.34-9.81V279.81h9.6l14.81-.45,18.4,28.31a8.31,8.31,0,0,0,1.09,1.8c22.24,33.12,37.62,53,47,60.71,10.1,8.32,22.28,12.53,36.2,12.53,20,0,36.58-5.28,49.34-15.71l3.85-3.15-5-16.79ZM510.77,175.48h9.89c18.19,0,30.83,4.8,37.58,14.26,7.42,10.39,11,21,11,32.51s-3.39,20.2-10.37,27-18.2,10.19-33.5,10.19H510.77Z"/><path class="cls-2" d="M824.42,152.77a5.89,5.89,0,0,1-.68,1.5c-1,.26-3.69.69-9.52.69H674.34a44.37,44.37,0,0,1-7.52-.42,14.6,14.6,0,0,1-1.66-2.74l-2.06-4.14H645.37l15.89,40.41H678.5l-2.85-9.59c-.18-.62-.32-1.14-.43-1.58,1.17-.08,2.79-.13,5-.13h45.23V352.65c0,6.39-.78,8.84-1,9.48-.63.32-2.75,1.15-8.17,1.51l-7,.47v16.6h72V363.63h-7.47a28.9,28.9,0,0,1-7.31-.6,4.66,4.66,0,0,1-.67-1.16c-.19-.44-1.15-3.1-1.15-12.23V176.77h47.51c.92,0,1.68,0,2.31.06a12.51,12.51,0,0,1-.28,2l-2.31,9.27h16.79l15.89-40.41H826.12Z"/><path class="cls-2" d="M856.13,172h7.47c4.07,0,5.6.86,5.79,1.09.27.38,1.62,2.67,1.62,10.47V356.94c0,3.31-.59,5-1,5.87-.52.23-2.25.82-6.36.82h-7.47v17.08h70.32V363.63H919c-5.22,0-6.94-1-7.33-1.34-.22-.37-1.37-2.66-1.37-9.92V275.8h61a10.35,10.35,0,0,1,2,.16v7.14h17.08V248H973.89l-.64,6.57a42.85,42.85,0,0,1-7.16.44H910.28V177.05h60.51c7.76,0,11.2,1.08,12.55,1.72,0,0,2,1.09,3.84,7.91.05.32.11.63.19.94v7h17.08V155H856.13Z"/><path class="cls-2" d="M1147,151.81c-26.09,0-49,6.47-68.25,19.21a120.67,120.67,0,0,0-43.12,49.47c-9.4,19.91-14.17,39.66-14.17,58.72,0,28.61,10.1,53.48,30,73.91s45.9,30.88,77,30.88c38,0,69-12.75,92.08-37.9,23-25,34.6-56.1,34.6-92.5,0-28.9-10.26-53.37-30.5-72.74S1178.42,151.81,1147,151.81Zm69,166a79.69,79.69,0,0,1-30.53,29.41c-12.93,7.12-26.17,10.73-39.33,10.73-23.89,0-45-10.3-64.49-31.5-19.67-21.38-29.23-45.48-29.23-73.66,0-21.4,7.58-38.8,23.15-53.2,15.75-14.55,32.7-21.63,51.82-21.63,13.46,0,28.52,4.47,44.74,13.27A109.48,109.48,0,0,1,1212,227.92a92.57,92.57,0,0,1,15.17,51.58c0,13-3.74,25.85-11.12,38.26Z"/><path class="cls-2" d="M1502.59,351.94c-7.95,4.72-14.85,7.11-20.52,7.11-5.84,0-12.08-1.83-18.56-5.43-4.56-2.54-13.46-10.36-30-33.24-13.75-19-22.3-31.46-25.39-36.92l-11-16.87a83.06,83.06,0,0,0,23.06-22.75c7.24-10.9,10.92-22.58,10.92-34.72,0-10.61-2.16-19.81-6.4-27.37a46.41,46.41,0,0,0-19.11-18.25,64,64,0,0,0-23.59-7.5c-7.11-.7-18.11-1-33.65-1h-67.29v17l7.37.09c4.28.06,5.87.81,6.28,1.06a30.18,30.18,0,0,1,1.52,10.5V351.07c0,7.65-.85,10.56-1.18,11.39-.58.29-2.43,1-6.84,1.17l-7.15.31v16.77h69.32V363.63H1343c-4,0-5.64-.64-6.08-.87-.44-.89-1.34-3.49-1.34-9.81V279.81h9.6l14.81-.45,18.39,28.31a8.77,8.77,0,0,0,1.1,1.8c22.24,33.12,37.61,53,47,60.71,10.11,8.32,22.29,12.53,36.21,12.53,20,0,36.58-5.28,49.33-15.71l3.86-3.15-5-16.79Zm-167-176.46h9.89c18.19,0,30.83,4.8,37.58,14.26,7.41,10.39,11,21,11,32.51s-3.39,20.2-10.37,27-18.2,10.19-33.5,10.19h-14.62Z"/><path class="cls-2" d="M1649.19,152.77a6.74,6.74,0,0,1-.68,1.5c-1,.26-3.69.69-9.52.69H1499.1a44.47,44.47,0,0,1-7.52-.42,14.78,14.78,0,0,1-1.65-2.74l-2.07-4.14h-17.72L1486,188.07h17.24l-2.85-9.59c-.18-.62-.33-1.14-.44-1.58,1.18-.08,2.79-.13,5-.13h45.23V352.65c0,6.4-.78,8.84-1,9.48-.64.32-2.75,1.15-8.17,1.51l-7,.47v16.6h72V363.63h-7.46a29,29,0,0,1-7.32-.6,4.77,4.77,0,0,1-.66-1.16c-.19-.44-1.16-3.09-1.16-12.23V176.77H1637c.93,0,1.69,0,2.31.06a11.9,11.9,0,0,1-.27,2l-2.3,9.26h16.78l15.89-40.41h-18.49Z"/><path class="cls-2" d="M1738.85,129.16l-1.49.88a7.85,7.85,0,0,1-3.82,1.32,7.17,7.17,0,0,1-3.45-1c-.85-.47-2.5-1.93-5.56-6.17q-3.83-5.3-4.75-6.91l-2-3.08a15.41,15.41,0,0,0,4.29-4.22,11.55,11.55,0,0,0,2-6.42,10.26,10.26,0,0,0-1.18-5.06,8.58,8.58,0,0,0-3.53-3.37,11.83,11.83,0,0,0-4.36-1.39c-1.31-.13-3.35-.19-6.23-.19h-12.45v3.1h1.34a4.39,4.39,0,0,1,1.18.18,5.7,5.7,0,0,1,.29,2v31A7.59,7.59,0,0,1,1699,132a3,3,0,0,1-1.32.24l-1.3.06v3.06h12.8v-3.12h-1.36a3.59,3.59,0,0,1-1.13-.13,4.05,4.05,0,0,1-.27-1.87V116.63l4.56-.08,3.33,5.12v.22l.32.3c4.1,6.11,6.93,9.77,8.66,11.19a10.24,10.24,0,0,0,6.69,2.32,14,14,0,0,0,9.13-2.91l.7-.57ZM1706.37,97.3h1.86c3.38,0,5.72.89,7,2.65a10.14,10.14,0,0,1,2,6,6.66,6.66,0,0,1-1.93,5c-1.29,1.26-3.39,1.9-6.23,1.9h-2.73Z"/><path class="cls-2" d="M1714.67,76.61A40.3,40.3,0,1,0,1755,116.9,40.34,40.34,0,0,0,1714.67,76.61Zm0,73.8a33.51,33.51,0,1,1,33.51-33.51A33.54,33.54,0,0,1,1714.67,150.41Z"/><path class="cls-2" d="M552.48,588.27H531.31l-10.92,27.24a16,16,0,0,0-1.13,3.62q0,1.62,2.4,1.62v.73H510.93v-.73a6,6,0,0,0,3.62-1.06q1.47-1.05,3.23-5.46l26.16-66h1.29L571,612a27.3,27.3,0,0,0,2,4.63c1.31,2.77,3.33,4.15,6,4.15v.73H562.12v-.73c1.53,0,2.3-.61,2.3-1.81A11.74,11.74,0,0,0,563.3,615a1.58,1.58,0,0,1-.35-.64c-.06-.33-.11-.49-.14-.49Zm-20.48-2h19.52l-9.75-24.58Z"/><path class="cls-2" d="M580,622.48H561.12v-2.73h1c1.3,0,1.3-.45,1.3-.81a10.06,10.06,0,0,0-1-3.39,3.07,3.07,0,0,1-.43-.85l0-.12c0-.07,0-.12,0-.17l-10.13-25.14H532l-10.67,26.61a15.17,15.17,0,0,0-1.06,3.25c0,.2,0,.62,1.4.62h1v2.73H509.93v-2.73h1a5,5,0,0,0,3-.87c.46-.33,1.45-1.42,2.89-5l26.4-66.61h2.65L572,611.78V612a44.58,44.58,0,0,0,1.88,4.2c1.15,2.41,2.83,3.58,5.13,3.58h1Zm-15-2h9.77A8.62,8.62,0,0,1,572,617a27.68,27.68,0,0,1-2.06-4.83l-25.38-62.88L518.71,614.6c-1.26,3.16-2.39,5-3.54,5.88h3.46a2.53,2.53,0,0,1-.37-1.35c0-.43.14-1.24,1.19-4l11.18-27.88h22.53l10.55,26.18a2.71,2.71,0,0,1,.21.67.72.72,0,0,0,.09.2l.15.14.06.17a12.51,12.51,0,0,1,1.2,4.31A2.89,2.89,0,0,1,565,620.48Zm-12-33.22H530.53L541.77,559Zm-19.51-2H550l-8.27-20.87Z"/><path class="cls-2" d="M633.73,550.07v-.74h18.76a67.39,67.39,0,0,1,11.66.69,19.92,19.92,0,0,1,6.56,2.62,16.29,16.29,0,0,1,5.34,5.58,15.75,15.75,0,0,1,2.21,8.3q0,9.16-9,14.45,7.8,1.34,11.76,6.45a19.68,19.68,0,0,1,4,12.41,23.33,23.33,0,0,1-3.41,12.39q-3.4,5.6-7.79,7.43t-12.27,1.83H633.63v-.73c2.22,0,3.64-.45,4.27-1.35s.93-3.19.93-6.88V558.19a43,43,0,0,0-.22-5.33,2.79,2.79,0,0,0-1.45-2.11A7.19,7.19,0,0,0,633.73,550.07Zm13.42.78v31.69h8.77q8.91,0,11.83-5.09a20.33,20.33,0,0,0,2.91-10.14,17,17,0,0,0-2.25-9.09,14,14,0,0,0-6.59-5.51q-4.34-1.86-12.76-1.86Zm5.64,33.21h-5.64v22.87a32,32,0,0,0,.37,6.18,7.94,7.94,0,0,0,1.67,3,8.92,8.92,0,0,0,4.18,2.53,28.23,28.23,0,0,0,8.33,1q8.43,0,11.9-3.89t3.48-11.54q0-7.93-3.09-12.93t-7-6.07Q663.12,584.06,652.79,584.06Z"/><path class="cls-2" d="M661.5,622.48H632.63v-2.73h1c2.45,0,3.21-.58,3.44-.92s.76-1.59.76-6.31V558.19a40.82,40.82,0,0,0-.21-5.18,1.77,1.77,0,0,0-1-1.38,6.06,6.06,0,0,0-2.94-.56h-1v-2.74h19.76a67.29,67.29,0,0,1,11.86.71,20.87,20.87,0,0,1,6.89,2.75,17.36,17.36,0,0,1,5.67,5.92,16.75,16.75,0,0,1,2.35,8.81c0,5.72-2.51,10.41-7.46,14a18.16,18.16,0,0,1,10,6.3,20.74,20.74,0,0,1,4.18,13,24.51,24.51,0,0,1-3.55,12.92c-2.38,3.88-5.15,6.52-8.26,7.82S666.87,622.48,661.5,622.48Zm-23.23-2h20.28a22.31,22.31,0,0,1-5.49-.91,9.94,9.94,0,0,1-4.64-2.84,8.89,8.89,0,0,1-1.87-3.37,31.62,31.62,0,0,1-.4-6.43v-56.6H638.3a3.8,3.8,0,0,1,1.29,2.37,41,41,0,0,1,.24,5.49v54.33c0,5.24-.64,6.76-1.11,7.45A2.74,2.74,0,0,1,638.27,620.48ZM660,583.23a37.22,37.22,0,0,1,7.25.94c2.84.79,5.38,3,7.57,6.52s3.23,8,3.23,13.45-1.25,9.43-3.73,12.2c-1.93,2.16-4.88,3.5-8.82,4a25.42,25.42,0,0,0,7.86-1.62c2.71-1.13,5.17-3.49,7.32-7A22.46,22.46,0,0,0,684,599.83a18.8,18.8,0,0,0-3.76-11.8c-2.48-3.19-6.22-5.24-11.13-6.07l-2.71-.46,2.37-1.39c5.73-3.36,8.52-7.81,8.52-13.59a14.87,14.87,0,0,0-2.06-7.78,15.45,15.45,0,0,0-5-5.25A18.94,18.94,0,0,0,664,551a44.35,44.35,0,0,0-6.91-.6,22.34,22.34,0,0,1,5.18,1.39,15,15,0,0,1,7,5.91,18,18,0,0,1,2.4,9.61,21.34,21.34,0,0,1-3,10.63C667,580.78,664.11,582.55,660,583.23Zm-11.88,1.83v21.87a28.59,28.59,0,0,0,.34,5.93,7,7,0,0,0,1.47,2.6,8,8,0,0,0,3.73,2.21,27.12,27.12,0,0,0,8,.9c5.29,0,9-1.2,11.16-3.56s3.22-6,3.22-10.87c0-5.08-1-9.25-2.94-12.4s-4.06-5-6.39-5.64c-2.5-.69-7.2-1-14-1Zm0-3.52h7.77c5.53,0,9.22-1.54,11-4.59a19.35,19.35,0,0,0,2.78-9.64,16.06,16.06,0,0,0-2.1-8.56,13,13,0,0,0-6.13-5.12c-2.75-1.18-6.91-1.78-12.37-1.78h-.91Z"/><path class="cls-2" d="M776.76,550.26l3.43,9-.59.09s-.91-1-2.72-2.89a18.73,18.73,0,0,0-14.13-5.92q-7.39,0-11.73,4.23A13.78,13.78,0,0,0,746.68,565a11.94,11.94,0,0,0,2,6.93c1.35,2,4.18,3.82,8.49,5.52q11.12,3.75,15.2,5.64a23.38,23.38,0,0,1,7.9,6.38,17.3,17.3,0,0,1,3.8,11.55,22.26,22.26,0,0,1-.69,5.6,18.82,18.82,0,0,1-2.2,5.14,22.49,22.49,0,0,1-3.65,4.5,16.71,16.71,0,0,1-4.34,3.08,23.09,23.09,0,0,1-7,1.59q-4.75.54-6.27.54H740.76v-21h.73q.1,10.43,4.9,14.55t14.94,4.11q9.21,0,14-4.36a13.67,13.67,0,0,0,4.78-10.48,11.56,11.56,0,0,0-1.67-6.34,15.6,15.6,0,0,0-4.65-4.61q-3-2-11.31-4.84t-11.63-5.08a16.67,16.67,0,0,1-5.61-6.56A19.24,19.24,0,0,1,743,568a19,19,0,0,1,5.76-14.05q5.74-5.67,15.11-5.68a40.15,40.15,0,0,1,7.83.84,36,36,0,0,1,4.71,1.08A.92.92,0,0,0,776.76,550.26Z"/><path class="cls-2" d="M760,622.48H739.76v-23h2.72v1c.06,6.62,1.59,11.26,4.55,13.8s7.81,3.87,14.29,3.87c5.85,0,10.33-1.38,13.31-4.1a12.64,12.64,0,0,0,4.45-9.74,10.69,10.69,0,0,0-1.51-5.81,14.81,14.81,0,0,0-4.36-4.31c-1.91-1.26-5.64-2.86-11.08-4.72-5.65-2-9.53-3.69-11.85-5.2a17.61,17.61,0,0,1-6-6.93A20.4,20.4,0,0,1,742,568a20,20,0,0,1,6-14.76c4-4,9.34-6,15.82-6a41.5,41.5,0,0,1,8,.86c4.34.86,4.74,1,4.95,1.16h.69l.19.64,3.87,10.15-3,.49v-.8c-.29-.32-1-1-2.44-2.58a17.69,17.69,0,0,0-13.41-5.61c-4.64,0-8.35,1.33-11,4a12.67,12.67,0,0,0-4,9.5,11,11,0,0,0,1.86,6.36c1.24,1.8,3.94,3.54,8,5.17,7.35,2.47,12.5,4.38,15.25,5.65a24.49,24.49,0,0,1,8.24,6.65,18.31,18.31,0,0,1,4,12.19,23.79,23.79,0,0,1-.72,5.85,19.61,19.61,0,0,1-2.32,5.41,23.91,23.91,0,0,1-3.81,4.71,18.3,18.3,0,0,1-4.6,3.26,24.25,24.25,0,0,1-7.27,1.68C763.16,622.3,761.07,622.48,760,622.48Zm-18.25-2H760c1,0,3-.18,6.15-.53a22.33,22.33,0,0,0,6.64-1.5,16,16,0,0,0,4.08-2.9,21.65,21.65,0,0,0,3.48-4.3,17.74,17.74,0,0,0,2.09-4.87,21.25,21.25,0,0,0,.66-5.35,16.37,16.37,0,0,0-3.57-10.9A22.53,22.53,0,0,0,772,584c-2.69-1.23-7.77-3.11-15.11-5.59-4.59-1.82-7.51-3.74-9-5.91a13,13,0,0,1-2.21-7.49,14.78,14.78,0,0,1,4.64-10.93c3.07-3,7.25-4.52,12.43-4.52a19.68,19.68,0,0,1,14.85,6.23l.32.33-1.91-5-.09,0a54.7,54.7,0,0,0-12.09-1.81c-5.94,0-10.79,1.82-14.41,5.39A18.09,18.09,0,0,0,744,568a18.3,18.3,0,0,0,2.15,8.47,15.7,15.7,0,0,0,5.26,6.18c2.17,1.4,6,3.07,11.42,5,5.68,1.94,9.45,3.57,11.53,4.95a16.64,16.64,0,0,1,4.95,4.9,12.61,12.61,0,0,1,1.82,6.88,14.74,14.74,0,0,1-5.1,11.22c-3.36,3.07-8.29,4.62-14.66,4.62-7,0-12.22-1.47-15.59-4.36a13.59,13.59,0,0,1-4-6.34Z"/><path class="cls-2" d="M880.21,548.25q15.18,0,24.83,9.24a30.55,30.55,0,0,1,9.65,23q0,17.79-11.17,29.93t-29.63,12.15q-15,0-24.54-9.8a32.45,32.45,0,0,1-9.55-23.51,44.28,44.28,0,0,1,4.6-19,38.62,38.62,0,0,1,13.86-15.9Q867.53,548.25,880.21,548.25Zm-.3,70.54a30.17,30.17,0,0,0,14.7-4,29.64,29.64,0,0,0,11.41-11,27.81,27.81,0,0,0,4.17-14.4,34,34,0,0,0-5.61-19A39.89,39.89,0,0,0,890,556.92q-8.94-4.84-16.53-4.84-10.72,0-19.47,8.08a26.22,26.22,0,0,0-8.75,20.08A38.57,38.57,0,0,0,856,607.18Q866.64,618.79,879.91,618.79Z"/><path class="cls-2" d="M873.89,623.61c-10.23,0-18.72-3.4-25.26-10.1a33.61,33.61,0,0,1-9.83-24.21,45.5,45.5,0,0,1,4.7-19.43,39.72,39.72,0,0,1,14.21-16.3c6.31-4.19,13.88-6.32,22.5-6.32,10.34,0,18.93,3.2,25.52,9.51a31.7,31.7,0,0,1,10,23.77c0,12.06-3.84,22.36-11.43,30.61S886.43,623.61,873.89,623.61Zm-25.63-58.05a37.44,37.44,0,0,0-3,5.16,43.62,43.62,0,0,0-4.51,18.58,31.63,31.63,0,0,0,9.27,22.81c6.14,6.31,14.15,9.5,23.82,9.5,12,0,21.68-4,28.9-11.82s10.9-17.72,10.9-29.26a29.74,29.74,0,0,0-9.34-22.32c-6.21-5.94-14.33-9-24.14-9-8.22,0-15.42,2-21.39,6l-.44.3a27.81,27.81,0,0,1,15.12-4.45c5.2,0,10.93,1.67,17,5a41,41,0,0,1,14.9,13.76,35.2,35.2,0,0,1,5.78,19.6,28.91,28.91,0,0,1-4.31,14.91,30.65,30.65,0,0,1-11.79,11.36,31.29,31.29,0,0,1-15.18,4.12c-9.1,0-17.4-4-24.68-11.93a39.75,39.75,0,0,1-11-27.62A27.59,27.59,0,0,1,848.26,565.56Zm25.24-12.48c-6.86,0-13.18,2.63-18.79,7.81a25.4,25.4,0,0,0-8.43,19.35A37.77,37.77,0,0,0,856.7,606.5c6.89,7.49,14.7,11.29,23.21,11.29a29.28,29.28,0,0,0,14.22-3.87,28.82,28.82,0,0,0,11-10.63,27,27,0,0,0,4-13.89,33.28,33.28,0,0,0-5.45-18.51,39.08,39.08,0,0,0-14.19-13.09C883.77,554.67,878.37,553.08,873.5,553.08Z"/><path class="cls-2" d="M969.41,621.48v-.73c2.25,0,3.71-.43,4.38-1.28s1-2.3,1-4.35v-59a9.78,9.78,0,0,0-.78-4.53q-.78-1.39-4.7-1.49v-.74h19.35v.74a7.6,7.6,0,0,0-3.78.68,3.39,3.39,0,0,0-1.42,1.62,15.54,15.54,0,0,0-.34,4.21v50.65q0,6.51,3.13,9.18T997,619.08h8.81q6.36,0,9.32-3.13t3.3-11.81h.73v17.34Z"/><path class="cls-2" d="M1020.12,622.48H968.41v-2.73h1c2.51,0,3.33-.56,3.59-.89s.79-1.48.79-3.74v-59a8.62,8.62,0,0,0-.65-4c-.12-.21-.75-.9-3.86-1l-1,0v-2.71h21.35v2.74h-1a6.39,6.39,0,0,0-3.24.53,2.35,2.35,0,0,0-1,1.11,14.38,14.38,0,0,0-.28,3.87v50.65c0,4,.93,6.85,2.78,8.42s5.28,2.43,10.06,2.43h8.81c3.93,0,6.82-1,8.59-2.82s2.81-5.65,3-11.16l0-1h2.69Zm-45.91-2h43.91v-8a10.75,10.75,0,0,1-2.31,4.15c-2.16,2.29-5.54,3.45-10,3.45H997c-5.35,0-9.06-1-11.36-2.91s-3.48-5.31-3.48-9.94V556.58c0-3.1.23-4.09.4-4.56a4.08,4.08,0,0,1,1.24-1.69h-9.49a2.68,2.68,0,0,1,.61.74,10.46,10.46,0,0,1,.91,5v59c0,2.31-.4,3.93-1.22,5A3.33,3.33,0,0,1,974.21,620.48Z"/><path class="cls-2" d="M1140,621.48h-13.67V610.36Q1115.92,622,1101.49,622q-10.73,0-17-6t-6.29-16.66v-43.2c0-2.61-.31-4.27-.93-5s-2.07-1-4.36-1v-.74h19.16v.74c-2,0-3.46.31-4.29.95s-1.25,2.15-1.25,4.53v39.63q0,12.44,5.82,17.76a19.13,19.13,0,0,0,13.26,5.31q11.7,0,20.74-10.53V558.88q0-6.4-1.12-7.61a4.64,4.64,0,0,0-3.53-1.2H1121v-.74h19v.74c-2.35.13-3.83.52-4.43,1.17s-.91,1.89-.91,3.72V613.7a18.64,18.64,0,0,0,.34,4.55,3.38,3.38,0,0,0,1.4,1.79,6.76,6.76,0,0,0,3.6.71Z"/><path class="cls-2" d="M1101.49,623c-7.38,0-13.33-2.12-17.7-6.3s-6.6-10-6.6-17.38v-43.2c0-3.28-.52-4.13-.68-4.31s-.84-.71-3.61-.71h-1v-2.74h21.16v2.74h-1c-2.23,0-3.23.4-3.68.75-.26.19-.86.95-.86,3.73v39.63c0,8,1.85,13.69,5.5,17a18.22,18.22,0,0,0,12.58,5c7.35,0,14-3.33,19.74-9.9V558.88c0-5.58-.65-6.71-.85-6.93a3.71,3.71,0,0,0-2.8-.88H1120v-2.74h21V551l-.94,0c-2.9.17-3.61.7-3.76.86s-.64,1-.64,3V613.7a16.9,16.9,0,0,0,.3,4.25,2.36,2.36,0,0,0,1,1.26,5.69,5.69,0,0,0,3,.54h1v2.73h-15.67v-9.61C1118.58,619.57,1110.57,623,1101.49,623Zm-23.6-72.64a1.42,1.42,0,0,1,.12.13c.81.91,1.18,2.7,1.18,5.63v43.2c0,6.77,2,12.13,6,15.94s9.47,5.74,16.32,5.74a30.38,30.38,0,0,0,19.28-6.72,25.55,25.55,0,0,1-15.17,5,20.17,20.17,0,0,1-13.93-5.58c-4.08-3.72-6.15-9.94-6.15-18.49V555.55c0-2.63.5-4.34,1.51-5.22Zm49.45,70.15h8a4.18,4.18,0,0,1-1.29-1.93,16.83,16.83,0,0,1-.39-4.85V555c0-2.11.38-3.55,1.17-4.4l.25-.23h-9.4l.26.25c.65.7,1.39,2.27,1.39,8.3Z"/><path class="cls-2" d="M1255,546.83l-3.43,8.72h-.73a9,9,0,0,0,.19-2.1,1.39,1.39,0,0,0-.8-1.45,7.63,7.63,0,0,0-2.57-.32h-18.82v61.73a14.73,14.73,0,0,0,.62,5.21,2.93,2.93,0,0,0,1.66,1.76,11.14,11.14,0,0,0,3.41.37v.73H1215v-.73c2.45-.16,4-.64,4.61-1.42s.93-2.42.93-4.9V551.68h-18a12.49,12.49,0,0,0-3.57.32c-.55.21-.83.75-.83,1.59a7.72,7.72,0,0,0,.39,2h-.73l-3.43-8.72h.74a4.24,4.24,0,0,0,1.73,2.13,11.31,11.31,0,0,0,3.69.37h47.88a15.72,15.72,0,0,0,4.08-.37,3,3,0,0,0,1.84-2.13Z"/><path class="cls-2" d="M1235.5,622.48H1214v-2.67l.93-.06c2.92-.19,3.69-.79,3.89-1s.72-1.34.72-4.28V552.68h-17a10.67,10.67,0,0,0-3.21.26c-.17.06-.19.48-.19.65a6.86,6.86,0,0,0,.35,1.68l.38,1.28H1197l-4.22-10.72h2.82l.28.56c.67,1.33,1.11,1.6,1.24,1.66a10.56,10.56,0,0,0,3.29.28h47.88a15.3,15.3,0,0,0,3.8-.32c.18-.06.74-.22,1.17-1.49l.22-.69h2.93l-4.22,10.72h-2.69l.31-1.24a8.19,8.19,0,0,0,.16-1.86c0-.45-.12-.5-.17-.52a6.54,6.54,0,0,0-2.2-.25h-17.82v60.73c0,3,.29,4.26.53,4.81a2,2,0,0,0,1.08,1.22,10.22,10.22,0,0,0,3.08.31h1Zm-15.71-2h9.67a4.92,4.92,0,0,1-1-1.46,15.36,15.36,0,0,1-.7-5.61V550.68h19.82a8.34,8.34,0,0,1,2.93.39,2.18,2.18,0,0,1,1.21,1.16l.91-2.3a17,17,0,0,1-4.36.4h-47.88a12.75,12.75,0,0,1-3.85-.36l.81,2.07a2.16,2.16,0,0,1,1.13-1,11.23,11.23,0,0,1,3.92-.39h19v63.75c0,2.78-.37,4.53-1.15,5.52A3.09,3.09,0,0,1,1219.79,620.48Z"/><path class="cls-2" d="M1309,550.17v-.84h45.35v9.95h-.73c-1-3.69-1.8-5.87-2.47-6.52s-2.31-1-4.93-1h-23.8v32.38h22.09c2.19,0,3.58-.21,4.16-.61a2.16,2.16,0,0,0,.93-1.79h.74v6.81h-.74a2.44,2.44,0,0,0-1.15-1.91,7.76,7.76,0,0,0-3.35-.49h-22.68v22.28a20.51,20.51,0,0,0,.93,7.28,4.46,4.46,0,0,0,3,2.79,25,25,0,0,0,6.14.56h12.71a43.87,43.87,0,0,0,7.76-.41,5.76,5.76,0,0,0,2.86-1.66q1.17-1.23,1.81-5.42h.73v9.89H1309v-.73a8.17,8.17,0,0,0,3.79-1c.87-.54,1.3-1.93,1.3-4.18V557.36a16,16,0,0,0-.68-5.58C1312.9,550.7,1311.43,550.17,1309,550.17Z"/><path class="cls-2" d="M1359.27,622.48H1308v-2.67l.94-.06a7.31,7.31,0,0,0,3.33-.81c.24-.15.82-.79.82-3.33V557.36a14.67,14.67,0,0,0-.6-5.19c-.28-.64-1.55-1-3.49-1h-1v-2.84h47.35v11.95h-2.5l-.2-.75c-1.29-4.89-2-5.87-2.2-6s-1-.7-4.23-.7h-22.8v30.38h21.09c2.83,0,3.49-.36,3.59-.44a1.13,1.13,0,0,0,.5-1l0-1h2.7v8.81h-2.58l-.14-.83a1.6,1.6,0,0,0-.64-1.2,6.74,6.74,0,0,0-2.88-.37h-21.68v21.28a19.87,19.87,0,0,0,.85,6.89,3.46,3.46,0,0,0,2.3,2.21,24,24,0,0,0,5.88.53h12.71a41,41,0,0,0,7.52-.38,4.7,4.7,0,0,0,2.37-1.37c.36-.38,1-1.52,1.55-4.89l.13-.85h2.59Zm-45.77-2h43.77v-4a4.6,4.6,0,0,1-.82,1.24,6.69,6.69,0,0,1-3.35,1.94,42.77,42.77,0,0,1-8,.44H1332.4a25.06,25.06,0,0,1-6.41-.6,5.4,5.4,0,0,1-3.61-3.37c-.68-1.62-1-4.12-1-7.66V585.17h23.68a8.4,8.4,0,0,1,3.83.61,3.62,3.62,0,0,1,.41.27V584.3l-.1.07c-.78.54-2.24.79-4.73.79h-23.09V550.78h24.8c3,0,4.74.4,5.62,1.26a7.36,7.36,0,0,1,1.51,2.9v-4.61h-39.8a2.89,2.89,0,0,1,.78,1.06,16.62,16.62,0,0,1,.76,6v58.25C1315,618.08,1314.54,619.68,1313.5,620.48Z"/><path class="cls-2" d="M666.64,673.72v-.39h24.72v4.58H691v-.18a.21.21,0,0,1-.05-.16c-.36-1.34-.85-2.17-1.49-2.47a7.2,7.2,0,0,0-2.92-.45H673.91v17.21h11.72a6,6,0,0,0,2.07-.24,1.15,1.15,0,0,0,.63-1.06h.4v3.74h-.4q0-1.35-1.74-1.35H673.91v15.57c0,1.47.22,2.41.67,2.83a3.34,3.34,0,0,0,2.32.64v.4H666.64V712q1.8,0,2.28-.69a3.34,3.34,0,0,0,.48-1.93V677.25a4.94,4.94,0,0,0-.56-2.74A2.55,2.55,0,0,0,666.64,673.72Z"/><path class="cls-2" d="M677.9,713.39H665.64V711h1c1.21,0,1.46-.26,1.46-.26a2.42,2.42,0,0,0,.3-1.36V677.25a4,4,0,0,0-.37-2.16c-.16-.23-.68-.37-1.39-.37h-1v-2.39h26.72v6.58H690v-1a1.18,1.18,0,0,1,0-.2c-.38-1.38-.8-1.67-.93-1.73a6.08,6.08,0,0,0-2.49-.36H674.91v15.21h10.72a5.45,5.45,0,0,0,1.67-.15s0-.08,0-.24l.09-.91h2.3v5.74h-2.4v-1c0-.19,0-.35-.74-.35H674.91v14.57c0,1.75.34,2.09.36,2.11s.51.36,1.63.36h1Zm-7.88-2h3.37a6.6,6.6,0,0,1-.48-2.87V674.33h-3a6.71,6.71,0,0,1,.51,2.92v32.12A4.92,4.92,0,0,1,670,711.39Zm20.06-37.06a1.73,1.73,0,0,1,.28.19v-.19Z"/><path class="cls-2" d="M763.14,694.41H751.67l-5.91,14.74a8.37,8.37,0,0,0-.61,2c0,.58.43.87,1.3.87v.4h-5.81V712a3.27,3.27,0,0,0,2-.57,7.13,7.13,0,0,0,1.75-3l14.16-35.72h.7l13.93,34.5a15.27,15.27,0,0,0,1.07,2.51,3.46,3.46,0,0,0,3.27,2.24v.4h-9.13V712c.83,0,1.25-.33,1.25-1a6.31,6.31,0,0,0-.61-2.12,1,1,0,0,1-.19-.35.76.76,0,0,0-.07-.26Zm-11.09-1.09h10.56L757.34,680Z"/><path class="cls-2" d="M778.48,713.39H767.35V711h1l.24,0a5.2,5.2,0,0,0-.47-1.57,1.94,1.94,0,0,1-.26-.54l-.06-.21-5.34-13.24H752.35l-5.66,14.11c-.31.82-.45,1.25-.5,1.45l.26,0h1v2.4h-7.81V711h1a2.28,2.28,0,0,0,1.38-.38,6.26,6.26,0,0,0,1.4-2.52l14.41-36.35h2.06l14.25,35.39a22.59,22.59,0,0,0,1,2.19,2.5,2.5,0,0,0,2.37,1.67h1Zm-7.91-2h3.49a6.1,6.1,0,0,1-.75-1.21,15.52,15.52,0,0,1-1.15-2.69l-13.29-32.93-1.31,3.3,6.16,15.55h.09l5.84,14.49h0a2.27,2.27,0,0,1,.11.34l.08.07.07.18a7,7,0,0,1,.69,2.51A2.53,2.53,0,0,1,770.57,711.39Zm-26.59,0h.19a2.11,2.11,0,0,1,0-.25A2.2,2.2,0,0,1,744,711.39Zm9.54-19.07h7.62l-3.81-9.6Z"/><path class="cls-2" d="M850.18,673.83l1.85,4.88-.31,0s-.49-.54-1.48-1.56a10.28,10.28,0,0,0-3.36-2.37,10.49,10.49,0,0,0-4.29-.84,8.69,8.69,0,0,0-6.35,2.29,7.48,7.48,0,0,0-2.34,5.53,6.4,6.4,0,0,0,1.1,3.75q1.1,1.61,4.59,3,6,2,8.24,3.05a12.74,12.74,0,0,1,4.27,3.45,9.38,9.38,0,0,1,2.06,6.25,12.12,12.12,0,0,1-.38,3,9.81,9.81,0,0,1-1.19,2.78,12.77,12.77,0,0,1-2,2.44,9.37,9.37,0,0,1-2.35,1.67,12.83,12.83,0,0,1-3.77.86c-1.71.19-2.84.29-3.39.29H830.69V701h.39c0,3.76.92,6.39,2.66,7.87s4.43,2.23,8.08,2.23c3.33,0,5.85-.79,7.58-2.36a7.41,7.41,0,0,0,2.58-5.67,6.3,6.3,0,0,0-.9-3.44,8.55,8.55,0,0,0-2.52-2.49,30.07,30.07,0,0,0-6.12-2.62,32.77,32.77,0,0,1-6.3-2.75,9.11,9.11,0,0,1-3-3.55,10.56,10.56,0,0,1-1.22-4.84,10.24,10.24,0,0,1,3.12-7.6,11.13,11.13,0,0,1,8.18-3.08,28.31,28.31,0,0,1,6.79,1A.54.54,0,0,0,850.18,673.83Z"/><path class="cls-2" d="M841.11,713.39H829.69V700h2.39v1c0,3.45.81,5.84,2.31,7.13s4,2,7.43,2c3.06,0,5.38-.7,6.9-2.1a6.39,6.39,0,0,0,2.26-4.93,5.36,5.36,0,0,0-.74-2.9A7.8,7.8,0,0,0,848,698a30.35,30.35,0,0,0-5.9-2.51,33.09,33.09,0,0,1-6.51-2.85,10,10,0,0,1-3.39-3.94,11.49,11.49,0,0,1-1.33-5.29,11.31,11.31,0,0,1,3.41-8.32q4.68-4.59,13.32-2.89a22.07,22.07,0,0,1,2.69.62h.57l2.53,6.67-2.68.44v-.79l-1.2-1.26a9.35,9.35,0,0,0-3-2.15,9.52,9.52,0,0,0-3.88-.75,7.69,7.69,0,0,0-5.65,2,6.4,6.4,0,0,0-2,4.81,5.47,5.47,0,0,0,.92,3.19c.42.62,1.49,1.57,4.14,2.63,4,1.34,6.78,2.37,8.28,3.07a13.66,13.66,0,0,1,4.62,3.72,10.36,10.36,0,0,1,2.3,6.89,13.12,13.12,0,0,1-.41,3.29,11,11,0,0,1-1.31,3,13.19,13.19,0,0,1-2.13,2.64,10.36,10.36,0,0,1-2.61,1.85,13.52,13.52,0,0,1-4.08,1C842.85,713.29,841.7,713.39,841.11,713.39Zm-9.42-2h4.58a9.05,9.05,0,0,1-3.18-1.72,6.67,6.67,0,0,1-1.4-1.66Zm1.23-28.93c0,.32,0,.63,0,1A9.49,9.49,0,0,0,834,687.8a8.16,8.16,0,0,0,2.7,3.17,31.39,31.39,0,0,0,6.08,2.65,30.46,30.46,0,0,1,6.34,2.73,9.46,9.46,0,0,1,2.81,2.79,7.2,7.2,0,0,1,1.06,4v.24a11.3,11.3,0,0,0,.18-2,8.28,8.28,0,0,0-1.83-5.6,11.8,11.8,0,0,0-3.92-3.2c-1.44-.66-4.18-1.67-8.13-3-2.6-1-4.25-2.12-5.11-3.37A7.36,7.36,0,0,1,832.92,682.46Zm15.3-8.08a11.66,11.66,0,0,1,1.47,1l-.27-.71Zm2.18-1.5h0Z"/><path class="cls-2" d="M937.73,692.9H916.28v15a10.53,10.53,0,0,0,.2,2.7,2,2,0,0,0,.74,1,3.27,3.27,0,0,0,1.89.4v.4H909V712c1.84.12,2.76-.77,2.76-2.68v-31.4a8,8,0,0,0-.44-3.39c-.29-.48-1.06-.74-2.32-.8v-.39h10.1v.39a3.85,3.85,0,0,0-2.25.64,3,3,0,0,0-.58,2.18v15.27h21.45v-14a8.64,8.64,0,0,0-.41-3.25c-.28-.58-1-.87-2.3-.87v-.39h10v.39a4.31,4.31,0,0,0-1.76.28,1.51,1.51,0,0,0-.79.86,12,12,0,0,0-.21,3v30a11.36,11.36,0,0,0,.21,2.88,2,2,0,0,0,.73.94A3.28,3.28,0,0,0,945,712v.4H935V712a2.77,2.77,0,0,0,2.17-.66c.36-.44.54-1.63.54-3.58Z"/><path class="cls-2" d="M946,713.39H934V711h1c1.12,0,1.37-.27,1.39-.3s.32-.53.32-2.94V693.9H917.28v14a10.41,10.41,0,0,0,.14,2.38,1.08,1.08,0,0,0,.39.5,2.52,2.52,0,0,0,1.3.2h1v2.4H908v-2.47l1.07.07a1.68,1.68,0,0,0,1.29-.28,2,2,0,0,0,.4-1.4v-31.4c0-2.33-.26-2.82-.29-2.87h0s-.28-.26-1.51-.32l-1,0v-2.35h12.1v2.33l-.93.06c-1.26.08-1.59.33-1.65.38s-.25.25-.25,1.44v14.27h19.45v-13a7.59,7.59,0,0,0-.31-2.82c0-.08-.37-.3-1.4-.3h-1v-2.39h12v2.39h-1a3.31,3.31,0,0,0-1.33.18.51.51,0,0,0-.28.3,10.85,10.85,0,0,0-.15,2.63v30a10,10,0,0,0,.15,2.53,1,1,0,0,0,.37.47A2.38,2.38,0,0,0,945,711h1Zm-7.7-2h3.37c-.06-.12-.11-.24-.16-.37a10.22,10.22,0,0,1-.27-3.22v-30a10.28,10.28,0,0,1,.27-3.3,1.19,1.19,0,0,1,.08-.2H938.3a10.15,10.15,0,0,1,.43,3.51v29.91A10.31,10.31,0,0,1,938.3,711.39Zm-26,0h3.4a3,3,0,0,1-.2-.45,10,10,0,0,1-.25-3V676.54a5.21,5.21,0,0,1,.39-2.21h-3.32a9.82,9.82,0,0,1,.42,3.58v31.4A4.51,4.51,0,0,1,912.33,711.39Z"/><path class="cls-2" d="M1011,673.33v.39a4.18,4.18,0,0,0-1.72.24,1.54,1.54,0,0,0-1.11.93,14.7,14.7,0,0,0-.17,2.89v30a12,12,0,0,0,.2,3,1.79,1.79,0,0,0,.77.9,4.06,4.06,0,0,0,2,.36v.4h-10.43V712c1.31,0,2.12-.25,2.44-.75a7.68,7.68,0,0,0,.48-3.44V678.12a8.09,8.09,0,0,0-.53-3.64c-.35-.57-1.15-.83-2.39-.76v-.39Z"/><path class="cls-2" d="M1012,713.39H999.59V711h1c1.34,0,1.6-.29,1.6-.29s.32-.62.32-2.9V678.12c0-2.32-.29-3-.38-3.12s-.55-.33-1.48-.28l-1.06.06v-2.45H1012v2.5l-1.11-.11a3.11,3.11,0,0,0-1.28.19,1,1,0,0,0-.48.26,13.13,13.13,0,0,0-.13,2.61v30a11.31,11.31,0,0,0,.14,2.64.81.81,0,0,0,.36.4,3.29,3.29,0,0,0,1.5.2h1Zm-7.95-2h3.35a1.83,1.83,0,0,1-.14-.32,10.71,10.71,0,0,1-.26-3.32v-30a12.58,12.58,0,0,1,.21-3.16,1.31,1.31,0,0,1,.11-.29H1004a10.44,10.44,0,0,1,.49,3.79V707.8A10.11,10.11,0,0,1,1004.07,711.39Z"/><path class="cls-2" d="M1088.12,672.74q8.22,0,13.44,5a16.53,16.53,0,0,1,5.23,12.48,23,23,0,0,1-6,16.2q-6,6.58-16,6.58a17.91,17.91,0,0,1-18.46-18,24,24,0,0,1,2.49-10.29,20.77,20.77,0,0,1,19.39-11.94Zm-.16,38.19a16.36,16.36,0,0,0,8-2.16,16.06,16.06,0,0,0,6.17-6,15,15,0,0,0,2.26-7.79,18.43,18.43,0,0,0-3-10.32,21.58,21.58,0,0,0-7.87-7.26,19,19,0,0,0-9-2.63,15.14,15.14,0,0,0-10.54,4.38,14.18,14.18,0,0,0-4.74,10.87,20.88,20.88,0,0,0,5.78,14.58Q1080.78,710.93,1088,710.93Z"/><path class="cls-2" d="M1084.7,714a18.91,18.91,0,0,1-19.46-19,25,25,0,0,1,2.59-10.72,21.78,21.78,0,0,1,20.29-12.51c5.72,0,10.48,1.78,14.13,5.28a17.56,17.56,0,0,1,5.54,13.2,24.11,24.11,0,0,1-6.31,16.88C1097.27,711.68,1091.62,714,1084.7,714Zm-16.43-25.43a21.38,21.38,0,0,0-1,6.4,16.9,16.9,0,0,0,17.46,17c.78,0,1.54,0,2.29-.1-4.68-.27-9-2.48-12.73-6.58a21.94,21.94,0,0,1-6-15.26C1068.21,689.55,1068.23,689.06,1068.27,688.57Zm16.22-12.76a14.26,14.26,0,0,0-9.87,4.11,13.17,13.17,0,0,0-4.41,10.14,20,20,0,0,0,5.52,13.91c3.64,3.95,7.75,6,12.23,6a15.43,15.43,0,0,0,7.47-2,15.06,15.06,0,0,0,5.8-5.59,14.06,14.06,0,0,0,2.12-7.28,17.51,17.51,0,0,0-2.88-9.77,20.63,20.63,0,0,0-7.51-6.93A18,18,0,0,0,1084.49,675.81Zm1.17-1.95a21.3,21.3,0,0,1,8.25,2.7,22.67,22.67,0,0,1,8.24,7.6,19.49,19.49,0,0,1,3.2,10.86v.05a26.35,26.35,0,0,0,.44-4.85,15.47,15.47,0,0,0-4.92-11.76c-3.27-3.13-7.56-4.72-12.75-4.72Q1086.86,673.74,1085.66,673.86Z"/><path class="cls-2" d="M1194.34,673.33h7.56v.39a3.49,3.49,0,0,0-2.39.73,4.29,4.29,0,0,0-.66,2.85v35.57l-31.16-33.18v28.88a7.26,7.26,0,0,0,.21,2,1.57,1.57,0,0,0,.61.9,7,7,0,0,0,2,.48v.4H1163V712c1.35,0,2.18-.24,2.51-.72a7.2,7.2,0,0,0,.49-3.41V681.44a14.14,14.14,0,0,0-1-5.68q-1-2.19-4.47-2v-.39h7.35l29.28,31.17V676.93c0-1.48-.27-2.39-.8-2.72a3.9,3.9,0,0,0-2-.49Z"/><path class="cls-2" d="M1199.85,715.39l-31.16-33.18v26.36a6.52,6.52,0,0,0,.16,1.74.76.76,0,0,0,.18.35,6.55,6.55,0,0,0,1.62.34l.85.13v2.26H1162V711h1c1.41,0,1.69-.28,1.69-.29s.31-.52.31-2.84V681.44a13.39,13.39,0,0,0-.88-5.27c-.17-.39-.7-1.58-3.51-1.45l-1,0v-2.44h8.78L1196.18,702v-25c0-1.55-.33-1.86-.33-1.87a2.91,2.91,0,0,0-1.51-.34h-1v-2.39h9.56v2.36l-1,0c-1.2,0-1.59.32-1.71.43s-.37.44-.37,2.15Zm-33.28-4h.56a3.27,3.27,0,0,1-.18-.47.62.62,0,1,0-.38.47Zm.12-34.23,31.16,33.18v-3.67l-30.38-32.34h-2.18a4,4,0,0,1,.65,1,12.15,12.15,0,0,1,.75,2.51Zm31-2.83a4.13,4.13,0,0,1,.3.94,3.83,3.83,0,0,1,.34-.94Z"/><rect class="cls-2" x="237.82" y="475.18" width="1358.89" height="6"/></svg>